<svg xmlns="http://www.w3.org/2000/svg" viewBox="0 0 512 512">
  <defs>
    <linearGradient id="bgGradient" x1="0%" y1="0%" x2="100%" y2="100%">
      <stop offset="0%" style="stop-color:#8b5cf6"/>
      <stop offset="100%" style="stop-color:#3b82f6"/>
    </linearGradient>
  </defs>
  <rect width="512" height="512" rx="100" ry="100" fill="url(#bgGradient)"/>
  <g transform="translate(96, 80)">
    <rect x="40" y="80" width="240" height="200" rx="24" ry="24" fill="#ffffff" opacity="0.95"/>
    <rect x="40" y="80" width="240" height="60" rx="24" ry="24" fill="#ffffff"/>
    <rect x="40" y="116" width="240" height="24" fill="#ffffff"/>
    <rect x="60" y="90" width="50" height="8" rx="4" fill="#c4b5fd" opacity="0.6"/>
    <rect x="120" y="90" width="40" height="8" rx="4" fill="#c4b5fd" opacity="0.4"/>
    <rect x="170" y="90" width="30" height="8" rx="4" fill="#c4b5fd" opacity="0.3"/>
    <line x1="60" y1="156" x2="260" y2="156" stroke="#e5e7eb" stroke-width="2"/>
    <line x1="60" y1="192" x2="260" y2="192" stroke="#e5e7eb" stroke-width="2"/>
    <line x1="60" y1="228" x2="260" y2="228" stroke="#e5e7eb" stroke-width="2"/>
    <rect x="60" y="164" width="80" height="10" rx="3" fill="#a78bfa" opacity="0.5"/>
    <rect x="200" y="164" width="50" height="10" rx="3" fill="#34d399" opacity="0.7"/>
    <rect x="60" y="200" width="100" height="10" rx="3" fill="#a78bfa" opacity="0.4"/>
    <rect x="200" y="200" width="40" height="10" rx="3" fill="#f87171" opacity="0.7"/>
    <rect x="60" y="236" width="70" height="10" rx="3" fill="#a78bfa" opacity="0.3"/>
    <rect x="200" y="236" width="55" height="10" rx="3" fill="#34d399" opacity="0.5"/>
    <circle cx="160" cy="330" r="40" fill="#fbbf24" opacity="0.9"/>
    <text x="160" y="345" text-anchor="middle" font-size="40" font-weight="bold" fill="#ffffff" font-family="Arial, sans-serif">&#165;</text>
  </g>
</svg>
